<?xml version="1.0" encoding="UTF-8"?>
<svg version="1.1" xmlns="http://www.w3.org/2000/svg" width="1024" height="1024">
<path d="M0 0 C337.92 0 675.84 0 1024 0 C1024 337.92 1024 675.84 1024 1024 C686.08 1024 348.16 1024 0 1024 C0 686.08 0 348.16 0 0 Z " fill="#000000" transform="translate(0,0)"/>
<path d="M0 0 C8.02439646 5.92308151 14.3151673 12.76505761 16.38671875 22.76171875 C18.10595464 38.57305209 8.4019216 52.24914617 -0.9921875 64.109375 C-4.46376669 68.38556124 -8.02408735 72.58408101 -11.61328125 76.76171875 C-42.78591121 113.11615965 -57.06790657 152.55701244 -65.61328125 199.76171875 C-65.83113281 200.96199707 -66.04898437 202.16227539 -66.2734375 203.39892578 C-66.97023247 207.3084433 -67.64048009 211.22087749 -68.30078125 215.13671875 C-68.60471802 216.88819214 -68.60471802 216.88819214 -68.91479492 218.67504883 C-73.34897834 246.02935429 -72.86885218 273.57618026 -72.75061035 301.19470215 C-72.72983874 306.57249353 -72.72095095 311.95030473 -72.7109375 317.328125 C-72.68973938 327.80604036 -72.65578441 338.28386959 -72.61328125 348.76171875 C-69.43799439 347.03249131 -66.26564312 345.29794352 -63.09375 343.5625 C-62.20425659 343.07817505 -61.31476318 342.5938501 -60.39831543 342.09484863 C-55.12798322 339.2074759 -49.9769499 336.20456144 -44.92578125 332.94921875 C-29.47918363 323.13245749 -13.42383047 314.03262297 3.38671875 306.76171875 C2.39671875 304.12171875 1.40671875 301.48171875 0.38671875 298.76171875 C7.64671875 298.76171875 14.90671875 298.76171875 22.38671875 298.76171875 C19.38671875 307.76171875 19.38671875 307.76171875 16.38671875 309.76171875 C15.72671875 309.10171875 15.06671875 308.44171875 14.38671875 307.76171875 C14.15984375 308.40109375 13.93296875 309.04046875 13.69921875 309.69921875 C12.38671875 311.76171875 12.38671875 311.76171875 9.76171875 312.51171875 C8.97796875 312.59421875 8.19421875 312.67671875 7.38671875 312.76171875 C7.05671875 312.10171875 6.72671875 311.44171875 6.38671875 310.76171875 C1.89379539 312.3632632 -0.54851293 315.89113644 -3.48828125 319.44921875 C-5.01595105 321.2679663 -6.54361575 323.0867061 -8.07324219 324.90380859 C-9.13157863 326.1805905 -10.17040734 327.47371694 -11.19238281 328.77978516 C-11.70510742 329.41964355 -12.21783203 330.05950195 -12.74609375 330.71875 C-13.20129395 331.30245361 -13.65649414 331.88615723 -14.12548828 332.48754883 C-15.61328125 333.76171875 -15.61328125 333.76171875 -19.61328125 333.76171875 C-19.28328125 335.08171875 -18.95328125 336.40171875 -18.61328125 337.76171875 C-20.26328125 339.08171875 -21.91328125 340.40171875 -23.61328125 341.76171875 C-23.61328125 340.77171875 -23.61328125 339.78171875 -23.61328125 338.76171875 C-24.27328125 339.09171875 -24.93328125 339.42171875 -25.61328125 339.76171875 C-25.63390625 340.73109375 -25.65453125 341.70046875 -25.67578125 342.69921875 C-26.37526521 348.70728637 -31.13378573 353.09413179 -35.61328125 356.76171875 C-38.58321592 357.83636616 -40.40781664 357.8782811 -43.61328125 357.76171875 C-43.51015625 358.50421875 -43.40703125 359.24671875 -43.30078125 360.01171875 C-43.61328125 362.76171875 -43.61328125 362.76171875 -45.73828125 364.88671875 C-53.21328125 369.76171875 -53.21328125 369.76171875 -56.61328125 369.76171875 C-56.15505657 366.29230329 -55.72196442 363.08776826 -54.61328125 359.76171875 C-59.89328125 361.08171875 -65.17328125 362.40171875 -70.61328125 363.76171875 C-68.94284927 373.50590533 -66.79766936 383.12284112 -64.61328125 392.76171875 C-63.72189453 392.27445312 -63.72189453 392.27445312 -62.8125 391.77734375 C-60.61328125 390.76171875 -60.61328125 390.76171875 -57.42578125 390.51171875 C-53.01867245 389.64474653 -50.60296329 388.0011958 -46.99609375 385.43359375 C-44.61636631 383.76388335 -42.18644019 382.28811393 -39.67578125 380.82421875 C-24.09699722 371.55856292 -9.97654293 359.77474709 4.38671875 348.76171875 C3.39671875 348.76171875 2.40671875 348.76171875 1.38671875 348.76171875 C3.38182568 340.78129103 7.70198672 335.51074531 14.63671875 331.26171875 C19.02501662 328.76171875 19.02501662 328.76171875 21.38671875 328.76171875 C20.06320538 333.39401555 18.11044835 336.80898921 15.38671875 340.76171875 C15.97573975 340.36380127 16.56476074 339.96588379 17.17163086 339.5559082 C19.88663213 337.72489794 22.60538785 335.89953714 25.32421875 334.07421875 C26.71350586 333.13545898 26.71350586 333.13545898 28.13085938 332.17773438 C44.35852906 321.30234873 44.35852906 321.30234873 51.38671875 320.76171875 C51.47373047 320.16101563 51.56074219 319.5603125 51.65039062 318.94140625 C52.5955341 316.14358102 53.71498008 315.48443354 56.16796875 313.88671875 C56.92722656 313.37625 57.68648437 312.86578125 58.46875 312.33984375 C60.08072917 311.28776042 61.69270833 310.23567708 63.3046875 309.18359375 C64.06394531 308.673125 64.82320312 308.16265625 65.60546875 307.63671875 C66.30607422 307.18039062 67.00667969 306.7240625 67.72851562 306.25390625 C69.68296275 304.49513404 70.01545086 303.32484228 70.38671875 300.76171875 C71.33546875 300.59671875 72.28421875 300.43171875 73.26171875 300.26171875 C78.94514329 298.61831888 83.00577705 294.57179103 87.38671875 290.76171875 C88.27746094 290.01664062 89.16820312 289.2715625 90.0859375 288.50390625 C96.11066095 283.29565745 101.01519479 277.77650502 105.77124023 271.40771484 C107.84854175 268.63408723 109.47152164 266.70518349 112.38671875 264.76171875 C112.46921875 264.14296875 112.55171875 263.52421875 112.63671875 262.88671875 C113.8870381 259.34414725 117.15880755 258.49095689 120.38671875 256.76171875 C120.71671875 256.10171875 121.04671875 255.44171875 121.38671875 254.76171875 C124.68671875 254.76171875 127.98671875 254.76171875 131.38671875 254.76171875 C131.38671875 252.45171875 131.38671875 250.14171875 131.38671875 247.76171875 C134.68671875 248.42171875 137.98671875 249.08171875 141.38671875 249.76171875 C142.70671875 246.46171875 144.02671875 243.16171875 145.38671875 239.76171875 C151.13671875 241.51171875 151.13671875 241.51171875 153.38671875 243.76171875 C153.38671875 245.08171875 153.38671875 246.40171875 153.38671875 247.76171875 C180.46179416 236.03702055 180.46179416 236.03702055 203.38671875 217.76171875 C201.40671875 218.09171875 199.42671875 218.42171875 197.38671875 218.76171875 C197.38671875 214.47171875 197.38671875 210.18171875 197.38671875 205.76171875 C195.86691406 206.80972656 195.86691406 206.80972656 194.31640625 207.87890625 C192.96509605 208.79854792 191.61351937 209.71779811 190.26171875 210.63671875 C189.5965625 211.09691406 188.93140625 211.55710937 188.24609375 212.03125 C184.39483548 214.63651295 180.92960782 216.53046844 176.38671875 217.76171875 C183.5549073 206.31324496 195.46996698 193.99897628 208.7578125 190.05859375 C209.29535156 189.960625 209.83289063 189.86265625 210.38671875 189.76171875 C207.40238073 194.46779025 204.0693888 198.57686642 200.38671875 202.76171875 C204.01671875 203.09171875 207.64671875 203.42171875 211.38671875 203.76171875 C210.72671875 206.40171875 210.06671875 209.04171875 209.38671875 211.76171875 C214.52811595 204.7234954 217.34954682 198.35490871 219.26171875 189.88671875 C220.51669885 184.54223455 223.01514082 179.6859111 225.38671875 174.76171875 C223.40671875 174.76171875 221.42671875 174.76171875 219.38671875 174.76171875 C220.00736812 173.15586382 220.63341055 171.55209258 221.26171875 169.94921875 C221.78378906 168.60923828 221.78378906 168.60923828 222.31640625 167.2421875 C223.38671875 164.76171875 223.38671875 164.76171875 225.38671875 161.76171875 C197.65513223 177.82107159 169.63947452 196.44930794 147.38671875 219.76171875 C148.04671875 221.08171875 148.70671875 222.40171875 149.38671875 223.76171875 C148.31421875 223.84421875 147.24171875 223.92671875 146.13671875 224.01171875 C142.11287365 224.81648777 140.90502622 225.63901749 138.38671875 228.76171875 C136.07671875 228.10171875 133.76671875 227.44171875 131.38671875 226.76171875 C126.36201677 233.84547292 124.60969768 239.06554042 124.38671875 247.76171875 C119.76671875 247.76171875 115.14671875 247.76171875 110.38671875 247.76171875 C110.05671875 249.08171875 109.72671875 250.40171875 109.38671875 251.76171875 C107.40671875 250.77171875 105.42671875 249.78171875 103.38671875 248.76171875 C101.40671875 251.73171875 99.42671875 254.70171875 97.38671875 257.76171875 C94.74671875 257.10171875 92.10671875 256.44171875 89.38671875 255.76171875 C89.28359375 256.85484375 89.18046875 257.94796875 89.07421875 259.07421875 C88.38671875 262.76171875 88.38671875 262.76171875 87.01171875 264.69921875 C85.38671875 265.76171875 85.38671875 265.76171875 82.38671875 265.76171875 C82.05671875 264.77171875 81.72671875 263.78171875 81.38671875 262.76171875 C81.09796875 263.81359375 80.80921875 264.86546875 80.51171875 265.94921875 C78.57853576 270.63456867 74.90276116 271.94127642 70.46875 273.9140625 C69.78167969 274.19378906 69.09460938 274.47351563 68.38671875 274.76171875 C68.05671875 273.11171875 67.72671875 271.46171875 67.38671875 269.76171875 C66.47148438 270.19484375 65.55625 270.62796875 64.61328125 271.07421875 C63.42476562 271.63109375 62.23625 272.18796875 61.01171875 272.76171875 C59.23667969 273.59703125 59.23667969 273.59703125 57.42578125 274.44921875 C54.38671875 275.76171875 54.38671875 275.76171875 52.38671875 275.76171875 C52.38671875 276.42171875 52.38671875 277.08171875 52.38671875 277.76171875 C54.36671875 278.42171875 56.34671875 279.08171875 58.38671875 279.76171875 C54.27318533 284.71565147 47.21934283 286.45389127 41.38671875 288.76171875 C40.53464844 289.10976563 39.68257812 289.4578125 38.8046875 289.81640625 C31.18512513 292.54231442 23.36126746 292.02885624 15.38671875 291.76171875 C19.00326781 287.67260727 23.34842577 285.09647117 27.94921875 282.26171875 C29.67325447 281.18632196 31.39721065 280.11079767 33.12109375 279.03515625 C33.99958984 278.48956055 34.87808594 277.94396484 35.78320312 277.38183594 C39.76731711 274.90259921 43.73352414 272.39527652 47.69921875 269.88671875 C49.28254306 268.88540239 50.86587654 267.88410055 52.44921875 266.8828125 C53.25230469 266.37476074 54.05539062 265.86670898 54.8828125 265.34326172 C57.48593608 263.69905008 60.09256882 262.0604893 62.69921875 260.421875 C101.53046625 236.10264389 101.53046625 236.10264389 136.00390625 206.0859375 C136.59268555 205.47943359 137.18146484 204.87292969 137.78808594 204.24804688 C138.91393976 203.07307649 140.02727377 201.88594448 141.12597656 200.68554688 C142.64453125 199.0859375 142.64453125 199.0859375 145.38671875 196.76171875 C147.36328125 196.71484375 147.36328125 196.71484375 149.38671875 197.76171875 C150.381875 198.22707031 151.37703125 198.69242188 152.40234375 199.171875 C153.4696875 199.71714844 154.53703125 200.26242187 155.63671875 200.82421875 C156.714375 201.37207031 157.79203125 201.91992188 158.90234375 202.484375 C160.13210938 203.11666016 160.13210938 203.11666016 161.38671875 203.76171875 C161.60070312 203.07722656 161.8146875 202.39273438 162.03515625 201.6875 C163.79819978 197.87096936 166.24574832 195.08469391 169.01171875 191.94921875 C169.54933838 191.33191895 170.08695801 190.71461914 170.64086914 190.07861328 C185.28000729 173.40133582 185.28000729 173.40133582 190.51171875 172.32421875 C192.64018231 171.92144956 192.64018231 171.92144956 193.6640625 169.50390625 C195.68521473 166.28656188 197.78658065 164.60343485 200.82421875 162.32421875 C201.65336792 161.70003052 201.65336792 161.70003052 202.49926758 161.06323242 C210.16648489 155.34928812 218.04190652 149.91093682 225.91552734 144.48681641 C227.64083607 143.28240706 229.3510849 142.05626184 231.04931641 140.81396484 C231.91991699 140.18184082 232.79051758 139.5497168 233.6875 138.8984375 C234.46907471 138.32182373 235.25064941 137.74520996 236.0559082 137.15112305 C238.53586852 135.67281005 240.54402902 135.15334747 243.38671875 134.76171875 C243.38671875 133.77171875 243.38671875 132.78171875 243.38671875 131.76171875 C245.24689848 130.15727567 247.07992393 128.74387668 249.07421875 127.32421875 C254.03105831 123.65426419 258.73198432 119.82408568 263.26171875 115.63671875 C263.81239014 115.13019775 264.36306152 114.62367676 264.93041992 114.10180664 C267.89036273 111.32739501 270.43695443 108.50795818 272.88671875 105.26171875 C276.48729458 100.88116931 281.03447514 99.94057884 286.3984375 98.6484375 C289.35314072 97.77168243 291.08099736 96.76449865 293.38671875 94.76171875 C292.72671875 92.45171875 292.06671875 90.14171875 291.38671875 87.76171875 C292.41410156 87.79394531 293.44148437 87.82617188 294.5 87.859375 C305.45578099 87.89520423 310.33641647 85.3677917 318.38671875 77.76171875 C339.17755065 60.66468947 339.17755065 60.66468947 348.91870117 59.44458008 C353.78619703 58.67673208 356.51045978 57.90310372 359.5847168 53.89868164 C361.69284814 50.25231453 363.38472057 46.42725374 365.07421875 42.57421875 C365.69497855 41.23725996 366.31929987 39.90194872 366.94726562 38.56835938 C368.47642106 35.31814656 369.92635776 32.04699799 371.38671875 28.76171875 C376.33671875 28.76171875 381.28671875 28.76171875 386.38671875 28.76171875 C381.11290643 43.18714655 374.27552601 60.64454165 359.38671875 67.76171875 C348.27695307 71.63248063 348.27695307 71.63248063 342.50390625 71.890625 C339.56030312 72.03015359 337.92082403 72.22120151 335.38671875 73.76171875 C332.7646307 78.20647776 331.04317019 82.83413305 329.24414062 87.65527344 C327.20836231 92.65661037 324.23510815 97.19044336 321.38671875 101.76171875 C322.29550781 101.54515625 322.29550781 101.54515625 323.22265625 101.32421875 C331.99475496 99.3808615 339.81879029 98.78156972 348.38671875 101.76171875 C345.64157024 104.71851944 343.06120002 106.69755386 339.4921875 108.56640625 C338.54287354 109.06495117 337.59355957 109.56349609 336.61547852 110.07714844 C335.61186279 110.59180664 334.60824707 111.10646484 333.57421875 111.63671875 C332.55062256 112.1668457 331.52702637 112.69697266 330.47241211 113.24316406 C322.61221927 117.25997875 314.69148239 120.77042948 306.38671875 123.76171875 C306.86402713 122.30277615 307.34362917 120.84458379 307.82421875 119.38671875 C308.09105469 118.57460937 308.35789062 117.7625 308.6328125 116.92578125 C309.38671875 114.76171875 309.38671875 114.76171875 310.38671875 112.76171875 C309.75056641 113.5196875 309.75056641 113.5196875 309.1015625 114.29296875 C304.25121275 119.66566386 304.25121275 119.66566386 299.44921875 120.19921875 C298.43859375 120.05484375 297.42796875 119.91046875 296.38671875 119.76171875 C297.70671875 120.75171875 299.02671875 121.74171875 300.38671875 122.76171875 C298.38671875 124.76171875 298.38671875 124.76171875 295.76171875 124.88671875 C294.97796875 124.84546875 294.19421875 124.80421875 293.38671875 124.76171875 C294.37671875 125.09171875 295.36671875 125.42171875 296.38671875 125.76171875 C294.73350741 129.61611597 292.20103362 132.65567587 289.51171875 135.82421875 C288.78903809 136.6759668 288.78903809 136.6759668 288.05175781 137.54492188 C280.98921642 145.70345327 273.1811956 152.47994957 264.38671875 158.76171875 C277.75171875 159.25671875 277.75171875 159.25671875 291.38671875 159.76171875 C283.42942624 176.31288716 283.42942624 176.31288716 278.38671875 181.76171875 C278.05671875 181.76171875 277.72671875 181.76171875 277.38671875 181.76171875 C277.05671875 180.11171875 276.72671875 178.46171875 276.38671875 176.76171875 C275.9484375 177.33277344 275.51015625 177.90382813 275.05859375 178.4921875 C261.80178882 195.44041982 246.52213317 209.81533998 229.38671875 222.76171875 C228.69368652 223.28991211 228.0006543 223.81810547 227.28662109 224.36230469 C214.40412846 234.15494275 201.02973452 243.06882374 187.38671875 251.76171875 C186.55108398 252.29539062 185.71544922 252.8290625 184.85449219 253.37890625 C177.81762513 257.86700924 170.76472736 262.32679764 163.62890625 266.65625 C130.17336204 287.00853838 98.30310549 310.01437767 67.22363281 333.79980469 C60.72089653 338.76853757 54.1528179 343.63998722 47.54858398 348.47265625 C41.61954784 352.82270746 35.77913712 357.28005622 29.94921875 361.76171875 C23.16223295 366.96911514 16.2913294 372.0117754 9.26171875 376.88671875 C-36.76986626 407.71602693 -36.76986626 407.71602693 -62.61328125 454.76171875 C-62.94328125 454.76171875 -63.27328125 454.76171875 -63.61328125 454.76171875 C-63.69477717 457.78310442 -63.75401546 460.8022578 -63.80078125 463.82421875 C-63.82591797 464.67177734 -63.85105469 465.51933594 -63.87695312 466.39257812 C-63.94271781 472.07026265 -62.99777202 475.64394202 -60.61328125 480.76171875 C-60.5390625 483.09765625 -60.5390625 483.09765625 -60.92578125 485.13671875 C-62.74057185 495.24490725 -60.67387254 504.56690874 -58.61328125 514.44921875 C-58.18118648 516.53743515 -57.75179806 518.62607335 -57.3293457 520.71626282 C-56.94727511 522.60470106 -56.55594292 524.49125859 -56.1640625 526.37768555 C-55.64313742 529.57828066 -55.50959471 532.52676045 -55.61328125 535.76171875 C-54.62328125 536.09171875 -53.63328125 536.42171875 -52.61328125 536.76171875 C-52.6292334 537.35525146 -52.64518555 537.94878418 -52.66162109 538.56030273 C-52.75959535 545.10103881 -52.16247424 551.35597002 -51.23828125 557.82421875 C-50.96264265 559.83711668 -50.68791201 561.85013914 -50.4140625 563.86328125 C-50.27822754 564.85231445 -50.14239258 565.84134766 -50.00244141 566.86035156 C-49.42914589 571.13453221 -48.92052052 575.4153315 -48.42578125 579.69921875 C-48.30033936 580.7811853 -48.30033936 580.7811853 -48.17236328 581.88500977 C-47.98469845 583.51042938 -47.79876043 585.13604827 -47.61328125 586.76171875 C-46.62328125 587.09171875 -45.63328125 587.42171875 -44.61328125 587.76171875 C-44.61328125 589.41171875 -44.61328125 591.06171875 -44.61328125 592.76171875 C-45.27328125 592.76171875 -45.93328125 592.76171875 -46.61328125 592.76171875 C-46.54109375 593.99277344 -46.46890625 595.22382812 -46.39453125 596.4921875 C-43.11575318 657.69410348 -44.63204161 726.19821338 -87.76855469 774.53515625 C-90.00859329 776.98505273 -92.30899091 779.37208432 -94.61328125 781.76171875 C-95.32871094 782.5403125 -96.04414063 783.31890625 -96.78125 784.12109375 C-107.49667702 795.45974448 -120.84484335 803.65192266 -134.61328125 810.76171875 C-135.28053223 811.10831543 -135.9477832 811.45491211 -136.63525391 811.81201172 C-164.45156029 826.06493983 -197.72979168 834.80434616 -228.61328125 825.76171875 C-262.3974016 814.48610842 -285.84413066 785.94839042 -301.5078125 755.1640625 C-311.9592176 734.06418996 -322.07860308 710.67641521 -322.61328125 686.76171875 C-323.27328125 686.76171875 -323.93328125 686.76171875 -324.61328125 686.76171875 C-325.27328125 688.08171875 -325.93328125 689.40171875 -326.61328125 690.76171875 C-326.61328125 684.16171875 -326.61328125 677.56171875 -326.61328125 670.76171875 C-326.28328125 670.76171875 -325.95328125 670.76171875 -325.61328125 670.76171875 C-325.61440918 670.2011377 -325.61553711 669.64055664 -325.61669922 669.06298828 C-325.48383497 640.45096219 -317.83859885 614.88293401 -304.61328125 589.76171875 C-304.09765625 588.76269531 -303.58203125 587.76367188 -303.05078125 586.734375 C-294.38476589 570.32075352 -282.81646283 555.67112596 -270.61328125 541.76171875 C-269.65240601 540.66512939 -269.65240601 540.66512939 -268.67211914 539.54638672 C-262.70818688 532.82569164 -256.42858091 526.45891331 -250.05078125 520.13671875 C-249.03166371 519.12263429 -248.01278226 518.1083125 -246.99414062 517.09375 C-244.53655713 514.6470104 -242.07583879 512.20345331 -239.61328125 509.76171875 C-240.38414062 510.20644531 -241.155 510.65117188 -241.94921875 511.109375 C-242.95210938 511.67527344 -243.955 512.24117187 -244.98828125 512.82421875 C-246.48488281 513.67693359 -246.48488281 513.67693359 -248.01171875 514.546875 C-248.87023437 514.94777344 -249.72875 515.34867188 -250.61328125 515.76171875 C-251.27328125 515.43171875 -251.93328125 515.10171875 -252.61328125 514.76171875 C-246.5009178 508.2507229 -239.93355081 501.56438284 -231.640625 497.88696289 C-229.36154365 496.62199589 -228.395804 495.47310743 -226.9140625 493.34765625 C-226.43179199 492.67259033 -225.94952148 491.99752441 -225.45263672 491.30200195 C-224.94877441 490.5874585 -224.44491211 489.87291504 -223.92578125 489.13671875 C-215.79927729 478.00511422 -207.25903285 469.33527815 -193.23828125 466.76171875 C-190.69699648 466.17071654 -190.69699648 466.17071654 -188.61328125 464.76171875 C-187.13267566 461.7489675 -186.4250333 458.8125231 -185.63671875 455.55078125 C-181.03037167 438.49674817 -168.85031052 424.78250412 -157.83203125 411.46875 C-154.4591679 407.35361918 -151.16587209 403.18687543 -147.984375 398.921875 C-146.52446967 396.97613627 -145.0240601 395.05914471 -143.4609375 393.1953125 C-136.91472694 384.64106189 -137.54240299 375.09981995 -137.61328125 364.76171875 C-136.62328125 366.08171875 -135.63328125 367.40171875 -134.61328125 368.76171875 C-135.35578722 364.67793592 -136.44251426 360.74232652 -137.61328125 356.76171875 C-134.31328125 356.76171875 -131.01328125 356.76171875 -127.61328125 356.76171875 C-128.37152051 353.50948462 -128.37152051 353.50948462 -131.48828125 351.69921875 C-135.63220692 348.42401967 -136.87517287 343.86213062 -137.61328125 338.76171875 C-137.28328125 337.44171875 -136.95328125 336.12171875 -136.61328125 334.76171875 C-133.64328125 338.72171875 -130.67328125 342.68171875 -127.61328125 346.76171875 C-127.55786543 343.17816253 -127.51894941 339.59551211 -127.48828125 336.01171875 C-127.46314453 334.54605469 -127.46314453 334.54605469 -127.4375 333.05078125 C-127.40124442 327.32240037 -127.68107795 321.71972147 -128.33018017 316.03339672 C-129.59094379 304.92698387 -129.89303575 293.9722017 -129.84375 282.8046875 C-129.8425514 280.96023084 -129.84210647 279.11577356 -129.84236145 277.27131653 C-129.84081407 273.43856888 -129.83266428 269.60591693 -129.8190918 265.77319336 C-129.80213918 260.93256013 -129.79835869 256.09203069 -129.79891777 251.25137138 C-129.79831949 232.06805967 -129.77014919 212.9172686 -128.61328125 193.76171875 C-129.27328125 194.09171875 -129.93328125 194.42171875 -130.61328125 194.76171875 C-130.61328125 188.49171875 -130.61328125 182.22171875 -130.61328125 175.76171875 C-129.62328125 177.08171875 -128.63328125 178.40171875 -127.61328125 179.76171875 C-126.01359856 173.87136174 -125.08286008 168.12731141 -124.36328125 162.07421875 C-120.38588222 131.32850226 -112.84649787 100.61799676 -99.34619141 72.59765625 C-97.73509853 69.23809721 -96.2266839 65.86827913 -94.84765625 62.40625 C-84.93150262 37.52846392 -69.98545403 7.03049966 -44.61328125 -5.23828125 C-43.93265625 -5.57601562 -43.25203125 -5.91375 -42.55078125 -6.26171875 C-28.50363711 -12.0614866 -12.26072399 -7.8381762 0 0 Z " fill="#FAFCFC" transform="translate(481.61328125,108.23828125)"/>
<path d="M0 0 C9.17667361 11.05178339 16 31.70456084 16 46 C16.99 46 17.98 46 19 46 C19.04254356 47.99954746 19.04080783 50.00041636 19 52 C18.67 52.33 18.34 52.66 18 53 C18.09103723 54.47018336 18.24724951 55.93629752 18.42578125 57.3984375 C19.18479744 64.97393239 19.18604945 72.52533403 19.18530273 80.13134766 C19.1874775 82.59946258 19.20566234 85.0671206 19.22460938 87.53515625 C19.25707948 96.89180156 18.75092104 105.99310666 17.49194336 115.26660156 C17.01541207 118.88303654 16.68030562 122.49068884 16.375 126.125 C13.17962858 151.43636734 4.97365833 177.84389635 -7.08300781 200.28369141 C-7.91878347 201.8479893 -8.72289205 203.42910198 -9.5234375 205.01171875 C-19.41422083 224.16486548 -33.70094616 237.24765183 -52 248 C-52.62245605 248.37108887 -53.24491211 248.74217773 -53.88623047 249.12451172 C-67.9649169 257.42026583 -83.94245369 263.89554105 -100 267 C-101.670625 267.3403125 -101.670625 267.3403125 -103.375 267.6875 C-115.22951554 268.70944099 -124.01467418 268.29866205 -134.25 262 C-143.21384627 253.54546317 -144.20706855 241.53851979 -145 230 C-145.33 230 -145.66 230 -146 230 C-146 223.73 -146 217.46 -146 211 C-144 214 -144 214 -143 217 C-142.67128906 215.45505859 -142.67128906 215.45505859 -142.3359375 213.87890625 C-136.90290209 189.1365693 -126.87623684 165.32264396 -115 143 C-114.56461914 142.17322754 -114.12923828 141.34645508 -113.68066406 140.49462891 C-102.95130514 120.18101423 -90.93844693 101.25990205 -77 83 C-76.50612793 82.35160156 -76.01225586 81.70320312 -75.50341797 81.03515625 C-66.60507463 69.40429918 -57.09065214 58.30111513 -47.23046875 47.4765625 C-45.34953566 45.38810089 -43.4975186 43.28006282 -41.65234375 41.16015625 C-32.53208678 30.72243439 -22.87605568 20.77105817 -13.112854 10.93661499 C-11.69981725 9.51241457 -10.29104979 8.08398247 -8.88232422 6.65551758 C-7.58512451 5.35650513 -7.58512451 5.35650513 -6.26171875 4.03125 C-5.10095825 2.86432617 -5.10095825 2.86432617 -3.91674805 1.67382812 C-2 0 -2 0 0 0 Z " fill="#000000" transform="translate(367,590)"/>
<path d="M0 0 C4.95 0 9.9 0 15 0 C9.72618768 14.4254278 2.88880726 31.8828229 -12 39 C-23.10976568 42.87076188 -23.10976568 42.87076188 -28.8828125 43.12890625 C-31.82641563 43.26843484 -33.46589472 43.45948276 -36 45 C-38.62208805 49.44475901 -40.34354856 54.0724143 -42.14257812 58.89355469 C-44.17835644 63.89489162 -47.1516106 68.42872461 -50 73 C-49.39414062 72.855625 -48.78828125 72.71125 -48.1640625 72.5625 C-39.39196379 70.61914275 -31.56792846 70.01985097 -23 73 C-25.74514851 75.95680069 -28.32551873 77.93583511 -31.89453125 79.8046875 C-32.84384521 80.30323242 -33.79315918 80.80177734 -34.77124023 81.31542969 C-35.77485596 81.83008789 -36.77847168 82.34474609 -37.8125 82.875 C-38.83609619 83.40512695 -39.85969238 83.93525391 -40.91430664 84.48144531 C-48.77449948 88.49826 -56.69523636 92.00871073 -65 95 C-64.52269162 93.5410574 -64.04308958 92.08286504 -63.5625 90.625 C-63.29566406 89.81289062 -63.02882813 89.00078125 -62.75390625 88.1640625 C-62 86 -62 86 -61 84 C-61.42410156 84.5053125 -61.84820313 85.010625 -62.28515625 85.53125 C-67.135506 90.90394511 -67.135506 90.90394511 -71.9375 91.4375 C-72.948125 91.293125 -73.95875 91.14875 -75 91 C-73.68 91.99 -72.36 92.98 -71 94 C-73 96 -73 96 -75.625 96.125 C-76.40875 96.08375 -77.1925 96.0425 -78 96 C-77.01 96.33 -76.02 96.66 -75 97 C-76.65321134 100.85439722 -79.18568513 103.89395712 -81.875 107.0625 C-82.35678711 107.63033203 -82.83857422 108.19816406 -83.33496094 108.78320312 C-90.39750233 116.94173452 -98.20552315 123.71823082 -107 130 C-93.635 130.495 -93.635 130.495 -80 131 C-87.95729251 147.55116841 -87.95729251 147.55116841 -93 153 C-93.33 153 -93.66 153 -94 153 C-94 151.02 -94 149.04 -94 147 C-94.69335449 147.16081055 -95.38670898 147.32162109 -96.10107422 147.48730469 C-110.05375817 150.72117192 -124.01083638 153.92744468 -138 157 C-138 157.99 -138 158.98 -138 160 C-142.62 160.33 -147.24 160.66 -152 161 C-150.72936448 157.18809343 -149.51749676 153.73849288 -147.875 150.125 C-147.52179688 149.34382812 -147.16859375 148.56265625 -146.8046875 147.7578125 C-146.53914062 147.17773438 -146.27359375 146.59765625 -146 146 C-147.98 146 -149.96 146 -152 146 C-151.37935063 144.39414507 -150.7533082 142.79037383 -150.125 141.1875 C-149.77695312 140.29417969 -149.42890625 139.40085937 -149.0703125 138.48046875 C-148 136 -148 136 -146 133 C-173.73158652 149.05935284 -201.74724423 167.68758919 -224 191 C-223.34 192.32 -222.68 193.64 -222 195 C-223.0725 195.0825 -224.145 195.165 -225.25 195.25 C-229.2738451 196.05476902 -230.48169253 196.87729874 -233 200 C-235.31 199.34 -237.62 198.68 -240 198 C-245.02470198 205.08375417 -246.77702107 210.30382167 -247 219 C-251.62 219 -256.24 219 -261 219 C-261.33 220.32 -261.66 221.64 -262 223 C-263.98 222.01 -265.96 221.02 -268 220 C-269.98 222.97 -271.96 225.94 -274 229 C-276.64 228.34 -279.28 227.68 -282 227 C-282.103125 228.093125 -282.20625 229.18625 -282.3125 230.3125 C-283 234 -283 234 -284.375 235.9375 C-286 237 -286 237 -289 237 C-289.33 236.01 -289.66 235.02 -290 234 C-290.28875 235.051875 -290.5775 236.10375 -290.875 237.1875 C-292.80818299 241.87284992 -296.48395759 243.17955767 -300.91796875 245.15234375 C-301.60503906 245.43207031 -302.29210937 245.71179688 -303 246 C-303.495 243.525 -303.495 243.525 -304 241 C-304.91523437 241.433125 -305.83046875 241.86625 -306.7734375 242.3125 C-307.96195313 242.869375 -309.15046875 243.42625 -310.375 244 C-311.55835938 244.556875 -312.74171875 245.11375 -313.9609375 245.6875 C-317 247 -317 247 -319 247 C-319 247.66 -319 248.32 -319 249 C-316.03 249.99 -316.03 249.99 -313 251 C-317.11353342 255.95393272 -324.16737592 257.69217252 -330 260 C-330.85207031 260.34804688 -331.70414063 260.69609375 -332.58203125 261.0546875 C-340.20159362 263.78059567 -348.02545129 263.26713749 -356 263 C-352.38345094 258.91088852 -348.03829298 256.33475242 -343.4375 253.5 C-341.71346428 252.42460321 -339.9895081 251.34907892 -338.265625 250.2734375 C-336.94788086 249.45504395 -336.94788086 249.45504395 -335.60351562 248.62011719 C-331.61940164 246.14088046 -327.65319461 243.63355777 -323.6875 241.125 C-322.10417569 240.12368364 -320.52084221 239.1223818 -318.9375 238.12109375 C-317.73287109 237.35901611 -317.73287109 237.35901611 -316.50390625 236.58154297 C-313.90078267 234.93733133 -311.29414993 233.29877055 -308.6875 231.66015625 C-269.8562525 207.34092514 -269.8562525 207.34092514 -235.3828125 177.32421875 C-234.49964355 176.41446289 -234.49964355 176.41446289 -233.59863281 175.48632812 C-232.47277899 174.31135774 -231.35944498 173.12422573 -230.26074219 171.92382812 C-228.7421875 170.32421875 -228.7421875 170.32421875 -226 168 C-224.0234375 167.953125 -224.0234375 167.953125 -222 169 C-221.00484375 169.46535156 -220.0096875 169.93070313 -218.984375 170.41015625 C-217.91703125 170.95542969 -216.8496875 171.50070312 -215.75 172.0625 C-214.67234375 172.61035156 -213.5946875 173.15820312 -212.484375 173.72265625 C-211.66453125 174.14417969 -210.8446875 174.56570313 -210 175 C-209.78601563 174.31550781 -209.57203125 173.63101563 -209.3515625 172.92578125 C-207.58851897 169.10925061 -205.14097043 166.32297516 -202.375 163.1875 C-201.83738037 162.5702002 -201.29976074 161.95290039 -200.74584961 161.31689453 C-186.10671146 144.63961707 -186.10671146 144.63961707 -180.875 143.5625 C-178.74653644 143.15973081 -178.74653644 143.15973081 -177.72265625 140.7421875 C-175.70150402 137.52484313 -173.6001381 135.8417161 -170.5625 133.5625 C-170.00973389 133.14637451 -169.45696777 132.73024902 -168.88745117 132.30151367 C-161.22023386 126.58756937 -153.34481223 121.14921807 -145.47119141 115.72509766 C-143.74588268 114.52068831 -142.03563385 113.29454309 -140.33740234 112.05224609 C-139.46680176 111.42012207 -138.59620117 110.78799805 -137.69921875 110.13671875 C-136.91764404 109.56010498 -136.13606934 108.98349121 -135.33081055 108.3894043 C-132.85085023 106.9110913 -130.84268973 106.39162872 -128 106 C-128 105.01 -128 104.02 -128 103 C-126.13982027 101.39555692 -124.30679482 99.98215793 -122.3125 98.5625 C-117.35566044 94.89254544 -112.65473443 91.06236693 -108.125 86.875 C-107.57432861 86.368479 -107.02365723 85.86195801 -106.45629883 85.34008789 C-103.49635602 82.56567626 -100.94976432 79.74623943 -98.5 76.5 C-94.89942417 72.11945056 -90.35224361 71.17886009 -84.98828125 69.88671875 C-82.03357803 69.00996368 -80.30572139 68.0027799 -78 66 C-78.66 63.69 -79.32 61.38 -80 59 C-78.97261719 59.03222656 -77.94523437 59.06445312 -76.88671875 59.09765625 C-65.93093776 59.13348548 -61.05030228 56.60607295 -53 49 C-32.2091681 31.90297072 -32.2091681 31.90297072 -22.46801758 30.68286133 C-17.60052172 29.91501333 -14.87625897 29.14138497 -11.80200195 25.13696289 C-9.69387061 21.49059578 -8.00199818 17.66553499 -6.3125 13.8125 C-5.6917402 12.47554121 -5.06741888 11.14022997 -4.43945312 9.80664062 C-2.91029769 6.55642781 -1.46036099 3.28527924 0 0 Z " fill="#F7F9F9" transform="translate(853,137)"/>
<path d="M0 0 C-1.58962659 4.03520597 -3.28232318 8.01811282 -5 12 C-3.35 12.33 -1.7 12.66 0 13 C-0.40707718 16.25661744 -1.32018916 18.71992598 -2.875 21.5625 C-4.64949203 24.93403485 -5.56550004 28.09265495 -6.375 31.8125 C-8.02658183 38.95423023 -10.71181818 46.80787879 -17 51 C-16.34 48.36 -15.68 45.72 -15 43 C-18.63 42.67 -22.26 42.34 -26 42 C-22.72803436 37.61259153 -19.45187242 33.24845837 -16 29 C-27.94492443 34.41137495 -37.30932706 42.25403106 -46 52 C-46.33 52.99 -46.66 53.98 -47 55 C-45.96359375 54.37351562 -44.9271875 53.74703125 -43.859375 53.1015625 C-42.48963065 52.27596316 -41.11983636 51.45044668 -39.75 50.625 C-39.06808594 50.2125 -38.38617187 49.8 -37.68359375 49.375 C-37.01972656 48.97539062 -36.35585938 48.57578125 -35.671875 48.1640625 C-35.0644043 47.79748535 -34.45693359 47.4309082 -33.83105469 47.05322266 C-31.92921253 45.95928304 -29.96238783 44.98119391 -28 44 C-27.67 47.96 -27.34 51.92 -27 56 C-24.03 55.505 -24.03 55.505 -21 55 C-31.79529423 69.60539808 -52.87495789 80.77276619 -70 86 C-70.66 86 -71.32 86 -72 86 C-72.20625 85.236875 -72.4125 84.47375 -72.625 83.6875 C-74.42070704 80.17770897 -76.43136312 79.47400219 -80 78 C-80.1546875 79.051875 -80.1546875 79.051875 -80.3125 80.125 C-81.09359003 83.39137647 -82.42058743 86.0471852 -84 89 C-86.97 88.34 -89.94 87.68 -93 87 C-93.33 88.98 -93.66 90.96 -94 93 C-97.3 93 -100.6 93 -104 93 C-104.99 94.98 -104.99 94.98 -106 97 C-107.010625 97.474375 -108.02125 97.94875 -109.0625 98.4375 C-112.24420891 99.69392432 -112.24420891 99.69392432 -112.875 102.6875 C-112.91625 103.450625 -112.9575 104.21375 -113 105 C-114.485 105.495 -114.485 105.495 -116 106 C-117.55210076 107.7178358 -117.55210076 107.7178358 -119.0625 109.875 C-126.37110707 119.52787726 -134.44137683 127.58509262 -144 135 C-144.86367188 135.73863281 -145.72734375 136.47726562 -146.6171875 137.23828125 C-149.591095 139.4370227 -151.38590948 139.33619447 -155 139 C-155.02320313 139.71800781 -155.04640625 140.43601562 -155.0703125 141.17578125 C-156.4492176 145.36464001 -159.29283003 146.82441183 -162.875 149.1875 C-163.51308594 149.62513672 -164.15117188 150.06277344 -164.80859375 150.51367188 C-166.5293194 151.69015967 -168.2640457 152.84610097 -170 154 C-173.24849977 155.72226496 -173.24849977 155.72226496 -174 159 C-185.6053647 164.82276084 -198.62411324 165.45519681 -211 162 C-214.625 160.375 -214.625 160.375 -217 159 C-214.87738924 156.87738924 -213.73100098 156.41288502 -210.9375 155.4921875 C-210.14085937 155.22792969 -209.34421875 154.96367187 -208.5234375 154.69140625 C-207.69070313 154.42199219 -206.85796875 154.15257812 -206 153.875 C-205.16726563 153.59785156 -204.33453125 153.32070313 -203.4765625 153.03515625 C-197.28086515 151 -197.28086515 151 -195 151 C-195.10441406 149.87464844 -195.10441406 149.87464844 -195.2109375 148.7265625 C-195.64859244 140.4528 -193.92030503 135.61898177 -189 129 C-189.66 128.67 -190.32 128.34 -191 128 C-190.01 127.68546875 -189.02 127.3709375 -188 127.046875 C-181.04636113 124.8040779 -174.42412932 122.53982636 -168 119 C-168.825 118.54625 -169.65 118.0925 -170.5 117.625 C-171.325 117.08875 -172.15 116.5525 -173 116 C-173 115.34 -173 114.68 -173 114 C-170.87717331 112.99539469 -168.75166979 111.99644398 -166.625 111 C-165.44164062 110.443125 -164.25828125 109.88625 -163.0390625 109.3125 C-160 108 -160 108 -158 108 C-157.34 109.32 -156.68 110.64 -156 112 C-154.88625 111.34 -153.7725 110.68 -152.625 110 C-149.25 108 -149.25 108 -147 108 C-146.814375 106.8553125 -146.814375 106.8553125 -146.625 105.6875 C-146 103 -146 103 -144 100 C-143.67 101.32 -143.34 102.64 -143 104 C-140.40743101 103.06454002 -140.40743101 103.06454002 -138 101 C-137.23618519 98.27285838 -137.14057352 95.85832822 -137 93 C-134.03 93.66 -131.06 94.32 -128 95 C-126.35 92.03 -124.7 89.06 -123 86 C-120.69 86.99 -118.38 87.98 -116 89 C-115.505 87.515 -115.505 87.515 -115 86 C-110.38 86 -105.76 86 -101 86 C-101.144375 84.411875 -101.28875 82.82375 -101.4375 81.1875 C-101.50234538 74.05450819 -98.19093902 69.52733539 -94 64 C-91.69 64.66 -89.38 65.32 -87 66 C-86.2265625 65.01 -86.2265625 65.01 -85.4375 64 C-82.20004245 61.34362457 -80.07447719 61.68657868 -76 62 C-76.99 60.68 -77.98 59.36 -79 58 C-71.7079053 50.47883426 -64.32230705 43.39286597 -56 37 C-55.29343262 36.45472656 -54.58686523 35.90945313 -53.85888672 35.34765625 C-42.2214543 26.40133499 -30.34792799 17.93599023 -18 10 C-17.24009766 9.51031738 -16.48019531 9.02063477 -15.69726562 8.51611328 C-13.46984379 7.08601793 -11.23680109 5.66537267 -9 4.25 C-8.32291992 3.81905029 -7.64583984 3.38810059 -6.94824219 2.9440918 C-2.23720738 0 -2.23720738 0 0 0 Z " fill="#040404" transform="translate(707,270)"/>
<path d="M0 0 C0.66 0.33 1.32 0.66 2 1 C1.15179687 1.70382813 0.30359375 2.40765625 -0.5703125 3.1328125 C-7.12214556 8.62628702 -13.45563833 14.2615844 -19.5 20.3125 C-20.06219238 20.87404785 -20.62438477 21.4355957 -21.20361328 22.01416016 C-24.99358609 25.85377834 -28.53938393 29.86206966 -32 34 C-31.34 34 -30.68 34 -30 34 C-30.99 36.97 -31.98 39.94 -33 43 C-22.605 42.505 -22.605 42.505 -12 42 C-11.505 41.01 -11.505 41.01 -11 40 C-9.35 40.66 -7.7 41.32 -6 42 C-6 42.66 -6 43.32 -6 44 C-11.65924443 45.42714682 -17.31924626 46.85123476 -22.97998047 48.27246094 C-24.90662565 48.75664062 -26.83305907 49.24166379 -28.75927734 49.72753906 C-31.52386459 50.42473296 -34.2891928 51.1189156 -37.0546875 51.8125 C-37.9193161 52.03123779 -38.7839447 52.24997559 -39.67477417 52.4753418 C-40.47545319 52.67554932 -41.2761322 52.87575684 -42.10107422 53.08203125 C-43.16030594 53.34850464 -43.16030594 53.34850464 -44.24093628 53.62036133 C-46 54 -46 54 -48 54 C-47.8046875 51.61328125 -47.8046875 51.61328125 -47 49 C-44.8203125 47.91796875 -44.8203125 47.91796875 -42.125 47.1875 C-38.27151249 45.91253979 -38.27151249 45.91253979 -35.671875 42.97265625 C-34.74782549 40.52910274 -34.74782549 40.52910274 -34 37 C-40.93 36.505 -40.93 36.505 -48 36 C-48.66 34.35 -49.32 32.7 -50 31 C-52.01735205 29.65589738 -52.01735205 29.65589738 -54 29 C-50.55738421 25.27202464 -46.33610327 23.18487968 -41.9375 20.75 C-41.10927734 20.27820313 -40.28105469 19.80640625 -39.42773438 19.3203125 C-38.63560547 18.87945312 -37.84347656 18.43859375 -37.02734375 17.984375 C-36.30281006 17.57928711 -35.57827637 17.17419922 -34.83178711 16.75683594 C-34.22729736 16.50708008 -33.62280762 16.25732422 -33 16 C-32.34 16.33 -31.68 16.66 -31 17 C-31.81984375 17.54269531 -32.6396875 18.08539063 -33.484375 18.64453125 C-34.56203125 19.35996094 -35.6396875 20.07539063 -36.75 20.8125 C-37.81734375 21.52019531 -38.8846875 22.22789062 -39.984375 22.95703125 C-42.3792991 24.57949926 -44.70833498 26.23675289 -47 28 C-45.08458862 28.10841951 -43.16740227 28.18578079 -41.25 28.25 C-40.18265625 28.29640625 -39.1153125 28.3428125 -38.015625 28.390625 C-34.2770013 27.90634732 -33.29020616 26.92921457 -31 24 C-29.71048102 22.00519271 -29.71048102 22.00519271 -28.75 19.9375 C-28.24726562 18.93009766 -28.24726562 18.93009766 -27.734375 17.90234375 C-26.81993295 15.87341156 -26.81993295 15.87341156 -27 13 C-11.95791189 5.39402571 -11.95791189 5.39402571 -4.625 1.9375 C-3.77164063 1.53402344 -2.91828125 1.13054687 -2.0390625 0.71484375 C-1.02972656 0.36099609 -1.02972656 0.36099609 0 0 Z " fill="#0A0A0A" transform="translate(763,240)"/>
<path d="M0 0 C0.99 0 1.98 0 3 0 C7.6905556 7.63411856 11.31150544 13.77782681 10 23 C10.78375 23.0825 11.5675 23.165 12.375 23.25 C15 24 15 24 16.3125 25.875 C17 28 17 28 17 31 C4.45725311 35.87647483 -6.87268316 37.66498693 -20 34 C-23.625 32.375 -23.625 32.375 -26 31 C-23.87738924 28.87738924 -22.73100098 28.41288502 -19.9375 27.4921875 C-19.14085937 27.22792969 -18.34421875 26.96367187 -17.5234375 26.69140625 C-16.69070313 26.42199219 -15.85796875 26.15257812 -15 25.875 C-13.75089844 25.45927734 -13.75089844 25.45927734 -12.4765625 25.03515625 C-6.28086515 23 -6.28086515 23 -4 23 C-4.06960938 22.24976563 -4.13921875 21.49953125 -4.2109375 20.7265625 C-4.64859244 12.4528 -2.92030503 7.61898177 2 1 C1.34 0.67 0.68 0.34 0 0 Z " fill="#323232" transform="translate(516,398)"/>
<path d="M0 0 C1.36516524 0.06335663 2.73040068 0.12521918 4.09570312 0.18554688 C7.41895416 0.33820505 10.74072137 0.50597683 14.0625 0.6875 C6.31080656 17.01651103 6.31080656 17.01651103 1.0625 22.6875 C0.7325 22.6875 0.4025 22.6875 0.0625 22.6875 C0.0625 20.7075 0.0625 18.7275 0.0625 16.6875 C-0.5975 16.6875 -1.2575 16.6875 -1.9375 16.6875 C-1.9375 16.0275 -1.9375 15.3675 -1.9375 14.6875 C-4.4125 14.1925 -4.4125 14.1925 -6.9375 13.6875 C-6.9375 14.3475 -6.9375 15.0075 -6.9375 15.6875 C-14.1975 15.6875 -21.4575 15.6875 -28.9375 15.6875 C-25.26923077 4.68269231 -25.26923077 4.68269231 -19.23046875 1.06640625 C-13.18922447 -1.46453398 -6.39063189 -0.35310347 0 0 Z " fill="#858686" transform="translate(758.9375,267.3125)"/>
<path d="M0 0 C3.0625 1.125 3.0625 1.125 6 3 C6.33 4.65 6.66 6.3 7 8 C11.95 8 16.9 8 22 8 C19.67820774 16.43177189 19.67820774 16.43177189 16.6875 18.9375 C13.81834545 20.07181691 10.95358356 21.10705613 8 22 C7.67 24.31 7.34 26.62 7 29 C2.38 29.33 -2.24 29.66 -7 30 C-5.72936448 26.18809343 -4.51749676 22.73849288 -2.875 19.125 C-2.52179687 18.34382813 -2.16859375 17.56265625 -1.8046875 16.7578125 C-1.53914062 16.17773438 -1.27359375 15.59765625 -1 15 C-2.98 15 -4.96 15 -7 15 C-6.72285156 14.32453125 -6.44570313 13.6490625 -6.16015625 12.953125 C-5.79792969 12.06109375 -5.43570313 11.1690625 -5.0625 10.25 C-4.52302734 8.92742187 -4.52302734 8.92742187 -3.97265625 7.578125 C-2.96316086 5.08636589 -2.96316086 5.08636589 -2.49609375 2.734375 C-2.33238281 2.16203125 -2.16867187 1.5896875 -2 1 C-1.34 0.67 -0.68 0.34 0 0 Z " fill="#6F7070" transform="translate(708,268)"/>
<path d="M0 0 C0.66 0.33 1.32 0.66 2 1 C-1.3 4.96 -4.6 8.92 -8 13 C-2.555 13.495 -2.555 13.495 3 14 C2.40890417 15.96231815 1.80166895 17.9197805 1.1875 19.875 C0.85105469 20.96554687 0.51460937 22.05609375 0.16796875 23.1796875 C-1 26 -1 26 -4 28 C-6.32387947 28.39387788 -8.65793749 28.73486085 -11 29 C-11 24.71 -11 20.42 -11 16 C-12.01320313 16.69867188 -13.02640625 17.39734375 -14.0703125 18.1171875 C-15.4216227 19.03682917 -16.77319938 19.95607936 -18.125 20.875 C-18.79015625 21.33519531 -19.4553125 21.79539062 -20.140625 22.26953125 C-23.99188327 24.8747942 -27.45711093 26.76874969 -32 28 C-29.10440519 23.37538095 -25.90886904 19.48931297 -22.0625 15.625 C-21.50199951 15.06135742 -20.94149902 14.49771484 -20.36401367 13.91699219 C-14.31072603 8.03131331 -7.54601215 3.77300607 0 0 Z " fill="#CDCFCF" transform="translate(690,298)"/>
<path d="M0 0 C0.33 0 0.66 0 1 0 C1 13.86 1 27.72 1 42 C0.67 42 0.34 42 0 42 C-0.21148682 42.84763916 -0.21148682 42.84763916 -0.42724609 43.71240234 C-1.06928799 46.26847578 -1.72200204 48.82170459 -2.375 51.375 C-2.59671875 52.26445312 -2.8184375 53.15390625 -3.046875 54.0703125 C-3.26601563 54.92109375 -3.48515625 55.771875 -3.7109375 56.6484375 C-3.90993652 57.43395996 -4.10893555 58.21948242 -4.31396484 59.02880859 C-5 61 -5 61 -7 63 C-7 42.54 -7 22.08 -7 1 C-3.20402867 4.79597133 -2.47622472 10.98083595 -1 16 C-0.67 10.72 -0.34 5.44 0 0 Z " fill="#4E4F4F" transform="translate(351,356)"/>
<path d="M0 0 C1.54571278 2.31856917 2.79618552 4.50638429 4 7 C4.66 6.34 5.32 5.68 6 5 C7.54473938 22.40590262 6.96459423 39.57829936 6 57 C5.67 57 5.34 57 5 57 C4.67 54.03 4.34 51.06 4 48 C3.01 50.64 2.02 53.28 1 56 C0.67 56 0.34 56 0 56 C0 37.52 0 19.04 0 0 Z " fill="#C6C7C7" transform="translate(402,371)"/>
<path d="M0 0 C5.75 1.75 5.75 1.75 8 4 C8.1953125 6.6015625 8.1953125 6.6015625 8.125 9.625 C8.10695313 10.62789063 8.08890625 11.63078125 8.0703125 12.6640625 C8.04710937 13.43492187 8.02390625 14.20578125 8 15 C5.03 15 2.06 15 -1 15 C-0.34 17.31 0.32 19.62 1 22 C-3.95 22 -8.9 22 -14 22 C-14 17.38 -14 12.76 -14 8 C-9.05 8.99 -9.05 8.99 -4 10 C-2.68 6.7 -1.36 3.4 0 0 Z " fill="#DFE1E1" transform="translate(627,348)"/>
<path d="M0 0 C1.74627478 2.61941217 2.38722388 4.03824877 3 7 C3.66 6.67 4.32 6.34 5 6 C5.02495201 11.2103644 5.04297787 16.42069305 5.05493164 21.63110352 C5.05992164 23.39901334 5.06671601 25.16691911 5.07543945 26.93481445 C5.202239 53.31657969 5.202239 53.31657969 1 63 C0.67 63 0.34 63 0 63 C0 42.21 0 21.42 0 0 Z " fill="#3F3F3F" transform="translate(381,648)"/>
<path d="M0 0 C4.95 2.31 9.9 4.62 15 7 C8.45394266 13.54605734 1.72265465 18.77641024 -7 22 C-8.15994163 12.48111396 -5.58454648 7.6787514 0 0 Z " fill="#313131" transform="translate(613,334)"/>
<path d="M0 0 C4.30101753 6.45152629 5.61657404 14.35403518 6 22 C6.06445312 23.16273438 6.12890625 24.32546875 6.1953125 25.5234375 C6.49754783 35.77928975 5.1269112 45.20843137 2 55 C1.34 55.66 0.68 56.32 0 57 C0 38.19 0 19.38 0 0 Z " fill="#505151" transform="translate(439,713)"/>
<path d="M0 0 C7.26 0 14.52 0 22 0 C19 9 19 9 16 11 C15.34 10.34 14.68 9.68 14 9 C13.6596875 9.9590625 13.6596875 9.9590625 13.3125 10.9375 C12 13 12 13 9.375 13.75 C8.59125 13.8325 7.8075 13.915 7 14 C3.89123904 10.47673758 2.27584915 7.51454315 1 3 C0.67 2.01 0.34 1.02 0 0 Z " fill="#CECFCF" transform="translate(482,407)"/>
<path d="M0 0 C4.59945605 0.09266303 8.17257681 1.51146149 12.375 3.3125 C9.22993134 6.71901691 5.85120492 9.15009065 1.9375 11.625 C1.37740234 11.99689453 0.81730469 12.36878906 0.24023438 12.75195312 C-2.5766799 14.5170441 -4.17773259 15.35392477 -7.53515625 15.04296875 C-8.22480469 14.80191406 -8.91445313 14.56085938 -9.625 14.3125 C-10.13047389 9.0050242 -8.85243563 6.48918141 -5.625 2.3125 C-3.625 0.3125 -3.625 0.3125 0 0 Z " fill="#3F4040" transform="translate(542.625,395.6875)"/>
<path d="M0 0 C4.95 0 9.9 0 15 0 C13.83920317 8.1255778 11.7069645 14.68511204 8 22 C6.22881108 19.34321662 5.41388336 17.53627435 4.4921875 14.55078125 C4.22792969 13.70322266 3.96367187 12.85566406 3.69140625 11.98242188 C3.42199219 11.10134766 3.15257812 10.22027344 2.875 9.3125 C2.59785156 8.41982422 2.32070313 7.52714844 2.03515625 6.60742188 C1.35245019 4.40628336 0.67565441 2.20331328 0 0 Z " fill="#A4A5A5" transform="translate(344,465)"/>
<path d="M0 0 C4.62 0 9.24 0 14 0 C6.24830656 16.32901103 6.24830656 16.32901103 1 22 C0.67 22 0.34 22 0 22 C0 14.74 0 7.48 0 0 Z " fill="#D2D4D4" transform="translate(759,268)"/>
<path d="M0 0 C4.95 0.33 9.9 0.66 15 1 C15 6.28 15 11.56 15 17 C14.34 17 13.68 17 13 17 C13 16.34 13 15.68 13 15 C12.2575 14.87625 11.515 14.7525 10.75 14.625 C8.08791292 14.01998021 6.30007209 13.44667233 4 12 C2.734375 9.94140625 2.734375 9.94140625 1.75 7.5625 C1.41484375 6.78003906 1.0796875 5.99757813 0.734375 5.19140625 C0 3 0 3 0 0 Z " fill="#4E4F4F" transform="translate(744,267)"/>
<path d="M0 0 C0.33 0 0.66 0 1 0 C2.33926444 5.35705776 3.197436 10.65955692 0.625 15.6875 C-3.14973201 19.01285915 -8.78677457 23 -14 23 C-12.20501546 16.19795331 -9.49502971 11.37375733 -5 6 C-4.51660156 5.39542969 -4.03320312 4.79085938 -3.53515625 4.16796875 C-2.39024497 2.75093363 -1.19963751 1.3710143 0 0 Z " fill="#535454" transform="translate(446,464)"/>
<path d="M0 0 C3.0390625 0.0234375 3.0390625 0.0234375 6.625 0.375 C7.81351563 0.48585938 9.00203125 0.59671875 10.2265625 0.7109375 C11.14179687 0.80632812 12.05703125 0.90171875 13 1 C12.40890417 2.96231815 11.80166895 4.9197805 11.1875 6.875 C10.85105469 7.96554687 10.51460937 9.05609375 10.16796875 10.1796875 C9 13 9 13 6 15 C3.67612053 15.39387788 1.34206251 15.73486085 -1 16 C-1.22127098 13.70954632 -1.4266504 11.41755236 -1.625 9.125 C-1.74101563 7.84882813 -1.85703125 6.57265625 -1.9765625 5.2578125 C-1.98816406 3.64519531 -1.98816406 3.64519531 -2 2 C-1.34 1.34 -0.68 0.68 0 0 Z " fill="#959696" transform="translate(680,311)"/>
<path d="M0 0 C4.95 0 9.9 0 15 0 C15 4.62 15 9.24 15 14 C4.33261339 11.09071274 4.33261339 11.09071274 2 8 C1.05806283 5.36559819 0.58542947 2.7470152 0 0 Z " fill="#C6C7C7" transform="translate(773,196)"/>
<path d="M0 0 C8.14271082 2.25332878 8.14271082 2.25332878 10.9375 4.6875 C12.47943748 8.04348158 13.21784779 11.39006673 14 15 C9.38 15 4.76 15 0 15 C-1.0024305 9.65370398 -0.84888195 5.37625234 0 0 Z " fill="#3B3B3B" transform="translate(570,363)"/>
<path d="M0 0 C4.62 0 9.24 0 14 0 C11.54699868 9.44405508 11.54699868 9.44405508 9.328125 11.69921875 C7 13 7 13 0 15 C0 10.05 0 5.1 0 0 Z " fill="#C3C4C4" transform="translate(199,676)"/>
<path d="M0 0 C7 3 7 3 8 4 C8.14310287 7.6691577 8.04221662 11.32715441 8 15 C3.05 15 -1.9 15 -7 15 C-3.535 7.575 -3.535 7.575 0 0 Z " fill="#CFD0D0" transform="translate(286,552)"/>
<path d="M0 0 C1.5 1 1.5 1 3 3 C3.61101286 7.73534968 3.82641119 9.82702927 1.0625 13.75 C-2.88686572 16.65157481 -7.93244331 20 -13 20 C-11.69484268 15.42180568 -9.91106891 12.11589647 -7.0625 8.3125 C-6.37285156 7.38050781 -5.68320312 6.44851563 -4.97265625 5.48828125 C-3.40029876 3.50493131 -1.8421236 1.72662996 0 0 Z " fill="#E6E8E8" transform="translate(649,320)"/>
<path d="M0 0 C4.95 0 9.9 0 15 0 C12.68390501 8.41108179 12.68390501 8.41108179 9.75 10.9375 C6.54298293 12.17657478 3.33088402 13.15095113 0 14 C0 9.38 0 4.76 0 0 Z " fill="#DFE1E1" transform="translate(715,276)"/>
<path d="M0 0 C-1.26828506 4.54468815 -2.98672836 7.40351449 -6 11 C-6.33 11.99 -6.66 12.98 -7 14 C-10.8570146 17.67638306 -14.62972357 19.60705294 -20 20 C-18.00489307 12.01957228 -13.68473203 6.74902656 -6.75 2.5 C-2.36170213 0 -2.36170213 0 0 0 Z " fill="#8E8F8F" transform="translate(503,437)"/>
<path d="M0 0 C1.70884005 1.62339805 3.37446717 3.29319053 5 5 C5 5.66 5 6.32 5 7 C6.65 7 8.3 7 10 7 C9.01 7.33 8.02 7.66 7 8 C7.103125 8.7425 7.20625 9.485 7.3125 10.25 C7 13 7 13 4.875 15.125 C-2.6 20 -2.6 20 -6 20 C-5.54177532 16.53058454 -5.10868317 13.32604951 -4 10 C-4.66 9.67 -5.32 9.34 -6 9 C-5.01 8.67 -4.02 8.34 -3 8 C-1.98245132 6.1346755 -1.98245132 6.1346755 -1.3125 3.9375 C-1.06113281 3.20402344 -0.80976563 2.47054688 -0.55078125 1.71484375 C-0.36902344 1.14894531 -0.18726563 0.58304687 0 0 Z " fill="#C3C4C4" transform="translate(431,458)"/>
<path d="M0 0 C4.62 0 9.24 0 14 0 C14 4.62 14 9.24 14 14 C5.63795732 11.57621951 5.63795732 11.57621951 3.0625 9.25 C1.64681544 6.25207976 0.80266308 3.21065234 0 0 Z " fill="#B8B9B9" transform="translate(781,254)"/>
<path d="M0 0 C5.75 1.75 5.75 1.75 8 4 C8.1953125 6.6015625 8.1953125 6.6015625 8.125 9.625 C8.10695313 10.62789063 8.08890625 11.63078125 8.0703125 12.6640625 C8.03550781 13.82035156 8.03550781 13.82035156 8 15 C6.3973218 15.10824843 4.79254252 15.18570645 3.1875 15.25 C2.29417969 15.29640625 1.40085937 15.3428125 0.48046875 15.390625 C-2 15 -2 15 -5 11 C-3.35 7.37 -1.7 3.74 0 0 Z " fill="#7F8080" transform="translate(627,348)"/>
<path d="M0 0 C5.75 0.75 5.75 0.75 8 3 C8.27450545 6.34896654 8.08628804 9.63476663 8 13 C3.38 13.33 -1.24 13.66 -6 14 C-4.7290827 10.1872481 -3.66918099 7.09374991 -1.875 3.625 C-1.34519531 2.59246094 -1.34519531 2.59246094 -0.8046875 1.5390625 C-0.53914062 1.03117187 -0.27359375 0.52328125 0 0 Z " fill="#A2A3A3" transform="translate(707,284)"/>
<path d="M0 0 C-1.435938 5.22159274 -3.77578306 9.670042 -7 14 C-9.88415883 15.44207941 -12.41721528 15.09394887 -15.625 15.0625 C-16.81351563 15.05347656 -18.00203125 15.04445313 -19.2265625 15.03515625 C-20.14179687 15.02355469 -21.05703125 15.01195312 -22 15 C-18.0864502 10.54665023 -13.58082594 7.71058228 -8.5234375 4.6484375 C-6.01704245 3.14520821 -6.01704245 3.14520821 -4.3515625 1.2890625 C-3 0 -3 0 0 0 Z " fill="#AAABAB" transform="translate(737,254)"/>
<path d="M0 0 C-6.00659158 7.93463333 -12.06536667 13.99340842 -20 20 C-20.33 19.34 -20.66 18.68 -21 18 C-17.55521008 9.67620802 -13.50786441 4.65168495 -5.8125 0.125 C-3 -1 -3 -1 0 0 Z " fill="#373737" transform="translate(474,452)"/>
<path d="M0 0 C0.22174933 1.45635371 0.42698698 2.91522956 0.625 4.375 C0.74101563 5.18710937 0.85703125 5.99921875 0.9765625 6.8359375 C0.98429688 7.55007813 0.99203125 8.26421875 1 9 C-1 11 -1 11 -4.75 11.3125 C-8.75989658 11.23200938 -11.54149077 10.07510554 -15 8 C-15 7.34 -15 6.68 -15 6 C-12.87717331 4.99539469 -10.75166979 3.99644398 -8.625 3 C-7.44164062 2.443125 -6.25828125 1.88625 -5.0390625 1.3125 C-2 0 -2 0 0 0 Z " fill="#7D7E7E" transform="translate(549,378)"/>
<path d="M0 0 C0.70703125 1.765625 0.70703125 1.765625 1 4 C-0.36328125 5.921875 -0.36328125 5.921875 -2.3125 7.75 C-2.94800781 8.36359375 -3.58351562 8.9771875 -4.23828125 9.609375 C-6 11 -6 11 -8 11 C-8.33 11.99 -8.66 12.98 -9 14 C-11.36328125 15.5703125 -11.36328125 15.5703125 -14.3125 17.125 C-15.76076172 17.90230469 -15.76076172 17.90230469 -17.23828125 18.6953125 C-19.53779136 19.78164401 -21.51903214 20.51677111 -24 21 C-17.62997879 12.90835143 -10.21241116 6.60620558 -1 2 C-0.67 1.34 -0.34 0.68 0 0 Z " fill="#D6D8D8" transform="translate(253,603)"/>
<path d="M0 0 C6.19013532 5.62739575 12.04198104 12.73280883 14 21 C9.64638874 19.59147871 5.88820116 17.59365259 3 14 C0.97323499 9.33390295 0 5.08489496 0 0 Z " fill="#B1B2B2" transform="translate(344,443)"/>
<path d="M0 0 C-2.73633674 2.73633674 -4.52602065 2.98128305 -8.36328125 3.1328125 C-9.66652344 3.13023437 -10.96976563 3.12765625 -12.3125 3.125 C-13.60800781 3.12757813 -14.90351562 3.13015625 -16.23828125 3.1328125 C-19.59562923 3.01427685 -22.7083127 2.64302729 -26 2 C-26 1.34 -26 0.68 -26 0 C-17.19444799 -2.65827985 -8.74081282 -3.10784456 0 0 Z " fill="#C2C4C4" transform="translate(822,246)"/>
<path d="M0 0 C0.66 0.33 1.32 0.66 2 1 C0 4 -2 7 -4 10 C-4.66 10 -5.32 10 -6 10 C-7.38232443 11.62626404 -8.71937515 13.2925002 -10 15 C-5.545 16.98 -5.545 16.98 -1 19 C-1 19.33 -1 19.66 -1 20 C-8.00004889 19.71311275 -12.91026866 18.49595688 -19 15 C-16.66682784 14.22227595 -14.38564077 13.57584432 -12 13 C-13.32 12.34 -14.64 11.68 -16 11 C-15.67 10.34 -15.34 9.68 -15 9 C-14.01 9.185625 -13.02 9.37125 -12 9.5625 C-8.94283777 9.61876679 -8.08586404 9.07660566 -5.75390625 6.99609375 C-3.75366205 4.71774073 -1.84022084 2.40901637 0 0 Z " fill="#222222" transform="translate(793,218)"/>
<path d="M0 0 C0.33 0 0.66 0 1 0 C1.08803772 3.49983803 1.14073608 6.99938638 1.1875 10.5 C1.22520508 11.97339844 1.22520508 11.97339844 1.26367188 13.4765625 C1.32622356 19.73173059 0.58892681 24.29212987 -2 30 C-2.33 30 -2.66 30 -3 30 C-3.61916858 8.18621465 -3.61916858 8.18621465 0 0 Z " fill="#060606" transform="translate(384,681)"/>
<path d="M0 0 C3.77272159 3.77272159 4.14646882 8.80634581 4.3125 13.9375 C4.22971964 18.85164328 2.98663641 22.53006807 1 27 C0.67 27 0.34 27 0 27 C0 18.09 0 9.18 0 0 Z " fill="#EAECEC" transform="translate(213,830)"/>
<path d="M0 0 C3.61578532 3.61578532 4.15082579 7.86218961 4.3125 12.8125 C4.22698537 17.93560384 2.91501517 22.28085547 1 27 C0.67 27 0.34 27 0 27 C0 18.09 0 9.18 0 0 Z " fill="#535353" transform="translate(504,131)"/>
<path d="M0 0 C0.33 0 0.66 0 1 0 C1.74507544 6.37305598 2.10349817 12.58311325 2 19 C1.34 19 0.68 19 0 19 C-0.66 20.32 -1.32 21.64 -2 23 C-2.0580476 19.72924117 -2.09361165 16.45861476 -2.125 13.1875 C-2.14175781 12.25873047 -2.15851563 11.32996094 -2.17578125 10.37304688 C-2.18222656 9.48037109 -2.18867188 8.58769531 -2.1953125 7.66796875 C-2.20578613 6.84578857 -2.21625977 6.0236084 -2.22705078 5.17651367 C-2 3 -2 3 0 0 Z " fill="#B3B4B4" transform="translate(157,776)"/>
<path d="M0 0 C-1.70220378 1.44475303 -3.41206507 2.8804864 -5.125 4.3125 C-6.07632813 5.11300781 -7.02765625 5.91351563 -8.0078125 6.73828125 C-10.93138273 8.94813394 -13.60553117 10.62246625 -17 12 C-17.99 11.67 -18.98 11.34 -20 11 C-18.29779622 9.55524697 -16.58793493 8.1195136 -14.875 6.6875 C-13.92367187 5.88699219 -12.97234375 5.08648437 -11.9921875 4.26171875 C-4.40950859 -1.4698362 -4.40950859 -1.4698362 0 0 Z " fill="#4D4E4E" transform="translate(678,299)"/>
<path d="M0 0 C0.66 0.33 1.32 0.66 2 1 C1.195625 1.61875 0.39125 2.2375 -0.4375 2.875 C-3.03874519 4.74164041 -3.03874519 4.74164041 -4 7 C-4.99 7.33 -5.98 7.66 -7 8 C-7.598125 8.66 -8.19625 9.32 -8.8125 10 C-11.50439953 12.46116528 -13.42715954 12.67519632 -17 13 C-12.38957715 6.76969886 -7.22902166 2.92940747 0 0 Z " fill="#D8DADA" transform="translate(800,211)"/>
<path d="M0 0 C0.66 0.33 1.32 0.66 2 1 C-4.6 7.6 -11.2 14.2 -18 21 C-18 18 -18 18 -16.34765625 16.00708008 C-15.21650391 14.89949341 -15.21650391 14.89949341 -14.0625 13.76953125 C-13.25039063 12.96708984 -12.43828125 12.16464844 -11.6015625 11.33789062 C-10.74304688 10.50451172 -9.88453125 9.67113281 -9 8.8125 C-7.71222656 7.5450293 -7.71222656 7.5450293 -6.3984375 6.25195312 C-4.2721635 4.16111702 -2.13921536 2.07758017 0 0 Z M-20 21 C-19.67 21.99 -19.34 22.98 -19 24 C-20.32 24.99 -21.64 25.98 -23 27 C-23.66 26.67 -24.32 26.34 -25 26 C-23.35 24.35 -21.7 22.7 -20 21 Z " fill="#DEDFDF" transform="translate(755,248)"/>
<path d="M0 0 C3.24688563 4.32918084 4.13795609 6.48102969 4.0625 11.6875 C4.05347656 12.49574219 4.04445313 13.30398438 4.03515625 14.13671875 C4.02355469 14.75160156 4.01195312 15.36648438 4 16 C3.34 16 2.68 16 2 16 C1.67 16.99 1.34 17.98 1 19 C0.67 19 0.34 19 0 19 C0 12.73 0 6.46 0 0 Z " fill="#7F8080" transform="translate(351,284)"/>
<path d="M0 0 C3.02656335 4.0354178 4.27314409 6.0735322 5 11 C3.99907847 14.19075492 2.60641281 17.07261136 1 20 C0.67 20 0.34 20 0 20 C0 13.4 0 6.8 0 0 Z " fill="#818282" transform="translate(344,473)"/>
<path d="M0 0 C3.11025525 4.14700699 4.03746217 6.95197219 4 12 C3.53543861 14.46682097 2.84220766 16.6220019 2 19 C1.34 19 0.68 19 0 19 C0 12.73 0 6.46 0 0 Z " fill="#838484" transform="translate(417,582)"/>
<path d="M0 0 C3.89630716 5.19507622 4.14176404 6.55013896 3.390625 12.66796875 C2.90386625 15.57391849 2.05642854 18.25328581 1 21 C0.67 21 0.34 21 0 21 C0 14.07 0 7.14 0 0 Z " fill="#2D2D2D" transform="translate(417,561)"/>
<path d="M0 0 C3.09350905 4.12467873 4.19077974 6.94887916 4 12 C3.23996734 14.84649174 2.20792464 17.2942488 1 20 C0.67 20 0.34 20 0 20 C0 13.4 0 6.8 0 0 Z " fill="#525353" transform="translate(351,262)"/>
<path d="M0 0 C4.2228739 5.63049853 4.2228739 5.63049853 3.75 10.375 C3.68296875 11.14585937 3.6159375 11.91671875 3.546875 12.7109375 C3 15 3 15 0 19 C0 12.73 0 6.46 0 0 Z " fill="#333333" transform="translate(439,772)"/>
<path d="M0 0 C2.811844 2.811844 3.99359242 5.17704426 4.0078125 9.22265625 C3.49723451 15.50276549 3.49723451 15.50276549 0 19 C0 12.73 0 6.46 0 0 Z " fill="#363636" transform="translate(351,240)"/>
<path d="M0 0 C1.32 1.32 2.64 2.64 4 4 C3.96443786 6.95165783 3.75637198 9.38393462 3.25 12.25 C3.1365625 12.99507813 3.023125 13.74015625 2.90625 14.5078125 C2.62411021 16.3417211 2.31469005 18.17139567 2 20 C1.34 20 0.68 20 0 20 C0 13.4 0 6.8 0 0 Z " fill="#909191" transform="translate(410,313)"/>
<path d="M0 0 C3.30593488 4.95890232 4.21707149 6.70757791 3.625 12.6875 C3.51414063 13.86699219 3.40328125 15.04648437 3.2890625 16.26171875 C3.19367188 17.16535156 3.09828125 18.06898438 3 19 C2.01 19 1.02 19 0 19 C0 12.73 0 6.46 0 0 Z " fill="#5B5C5C" transform="translate(221,801)"/>
<path d="M0 0 C0.66 0 1.32 0 2 0 C1.03644647 10.55808656 1.03644647 10.55808656 0 15 C-2.08819573 11.86770641 -3.27566259 9.69412078 -4 6 C-2.25 2.625 -2.25 2.625 0 0 Z " fill="#0F0F0F" transform="translate(355,276)"/>
<path d="M0 0 C2 2 2 2 2 5 C2.66 5 3.32 5 4 5 C4.46192125 9.92715996 2.8275283 13.50732625 1 18 C0.67 18 0.34 18 0 18 C0 12.06 0 6.12 0 0 Z " fill="#5A5B5B" transform="translate(381,693)"/>
<path d="M0 0 C3.00636995 4.50955493 3.26737987 7.65240257 3 13 C2.4641037 15.39988345 1.76490828 17.6574684 1 20 C0.67 20 0.34 20 0 20 C0 13.4 0 6.8 0 0 Z " fill="#262626" transform="translate(410,429)"/>
<path d="M0 0 C2.31 0 4.62 0 7 0 C7 0.66 7 1.32 7 2 C8.0725 2.103125 9.145 2.20625 10.25 2.3125 C13.96023744 2.9927102 15.19952712 3.6889903 18 6 C10.99995111 5.71311275 6.08973134 4.49595688 0 1 C0 0.67 0 0.34 0 0 Z " fill="#A1A2A2" transform="translate(774,232)"/>
<path d="M0 0 C12.66970387 1.74259681 12.66970387 1.74259681 18 5 C18 5.33 18 5.66 18 6 C10.99995111 5.71311275 6.08973134 4.49595688 0 1 C0 0.67 0 0.34 0 0 Z " fill="#6E6F6F" transform="translate(236,858)"/>
<path d="M0 0 C0.66 0.33 1.32 0.66 2 1 C-0.78999451 4.48749314 -3.25235831 7.50157221 -7 10 C-7.66 9.67 -8.32 9.34 -9 9 C-6.03 6.03 -3.06 3.06 0 0 Z " fill="#C7C9C9" transform="translate(238,614)"/>
<path d="M0 0 C-2.83430453 3.2542015 -4.68607774 4.5206753 -9 5 C-9 3.68 -9 2.36 -9 1 C-2.25 -1.125 -2.25 -1.125 0 0 Z " fill="#CFD0D0" transform="translate(561,408)"/>
<path d="M0 0 C0.66 0.33 1.32 0.66 2 1 C1.67 2.65 1.34 4.3 1 6 C0.34 6 -0.32 6 -1 6 C-1.33 6.99 -1.66 7.98 -2 9 C-2 6.36 -2 3.72 -2 1 C-1.34 0.67 -0.68 0.34 0 0 Z " fill="#B5B6B6" transform="translate(355,309)"/>
<path d="M0 0 C1.32 0.33 2.64 0.66 4 1 C4 2.98 4 4.96 4 7 C3.01 7 2.02 7 1 7 C0.67 4.69 0.34 2.38 0 0 Z " fill="#ABACAC" transform="translate(382,715)"/>
<path d="M0 0 C0 2.31 0 4.62 0 7 C-0.99 7.33 -1.98 7.66 -3 8 C-3.6875 5.6875 -3.6875 5.6875 -4 3 C-1.72413793 0 -1.72413793 0 0 0 Z " fill="#C4C5C5" transform="translate(409,358)"/>
<path d="M0 0 C0.33 0.99 0.66 1.98 1 3 C-0.98 3.66 -2.96 4.32 -5 5 C-5 3.68 -5 2.36 -5 1 C-3.35 0.67 -1.7 0.34 0 0 Z " fill="#5B5C5C" transform="translate(674,277)"/>
<path d="M0 0 C0.66 0 1.32 0 2 0 C2.625 1.8125 2.625 1.8125 3 4 C2.01 5.485 2.01 5.485 1 7 C0.34 7 -0.32 7 -1 7 C-1.04254356 5.00045254 -1.04080783 2.99958364 -1 1 C-0.67 0.67 -0.34 0.34 0 0 Z " fill="#757777" transform="translate(456,447)"/>
<path d="M0 0 C2.375 -0.1875 2.375 -0.1875 5 0 C5.66 0.99 6.32 1.98 7 3 C3.37673261 4.2077558 2.35853631 3.54311128 -1 2 C-0.67 1.34 -0.34 0.68 0 0 Z " fill="#BBBCBC" transform="translate(749,241)"/>
<path d="M0 0 C0.99 0 1.98 0 3 0 C3 1.98 3 3.96 3 6 C2.01 6 1.02 6 0 6 C0 4.02 0 2.04 0 0 Z " fill="#757676" transform="translate(383,636)"/>
<path d="M0 0 C0.66 0 1.32 0 2 0 C2.33 1.65 2.66 3.3 3 5 C2.01 5.66 1.02 6.32 0 7 C-1 6 -1 6 -1.125 3.5 C-1 1 -1 1 0 0 Z " fill="#A4A5A5" transform="translate(449,454)"/>
<path d="M0 0 C2.125 0.9375 2.125 0.9375 4 2 C4 2.66 4 3.32 4 4 C1.69 4 -0.62 4 -3 4 C-2.67 3.01 -2.34 2.02 -2 1 C-1.34 0.67 -0.68 0.34 0 0 Z " fill="#939494" transform="translate(627,328)"/>
<path d="M0 0 C5.75 1.75 5.75 1.75 8 4 C4.7 3.67 1.4 3.34 -2 3 C-1.34 2.67 -0.68 2.34 0 2 C0 1.34 0 0.68 0 0 Z " fill="#7D7E7E" transform="translate(784,234)"/>
<path d="M0 0 C1.98 0.66 3.96 1.32 6 2 C6 2.66 6 3.32 6 4 C4.02 4 2.04 4 0 4 C-0.33 3.01 -0.66 2.02 -1 1 C-0.67 0.67 -0.34 0.34 0 0 Z " fill="#B9BABA" transform="translate(734,233)"/>
<path d="M0 0 C0.66 0.33 1.32 0.66 2 1 C1.01 2.98 0.02 4.96 -1 7 C-1.66 6.67 -2.32 6.34 -3 6 C-3 4.35 -3 2.7 -3 1 C-2.01 0.67 -1.02 0.34 0 0 Z " fill="#CECFCF" transform="translate(771,206)"/>
<path d="M0 0 C0.66 0 1.32 0 2 0 C2 1.98 2 3.96 2 6 C1.01 6 0.02 6 -1 6 C-1.042721 4.33388095 -1.04063832 2.66617115 -1 1 C-0.67 0.67 -0.34 0.34 0 0 Z " fill="#5C5D5D" transform="translate(435,665)"/>
<path d="M0 0 C0.66 0 1.32 0 2 0 C2 1.98 2 3.96 2 6 C1.01 6 0.02 6 -1 6 C-1.042721 4.33388095 -1.04063832 2.66617115 -1 1 C-0.67 0.67 -0.34 0.34 0 0 Z " fill="#7E7F7F" transform="translate(427,629)"/>
<path d="M0 0 C2.625 0.9375 2.625 0.9375 5 2 C4.67 2.66 4.34 3.32 4 4 C2.35 4 0.7 4 -1 4 C-1.33 3.01 -1.66 2.02 -2 1 C-1.34 0.67 -0.68 0.34 0 0 Z " fill="#2E2E2E" transform="translate(626,386)"/>
<path d="M0 0 C0.66 0 1.32 0 2 0 C2 1.98 2 3.96 2 6 C1.01 6 0.02 6 -1 6 C-1.042721 4.33388095 -1.04063832 2.66617115 -1 1 C-0.67 0.67 -0.34 0.34 0 0 Z " fill="#D8D9D9" transform="translate(355,323)"/>
<path d="M0 0 C0.66 0 1.32 0 2 0 C2 1.98 2 3.96 2 6 C1.01 6 0.02 6 -1 6 C-1.042721 4.33388095 -1.04063832 2.66617115 -1 1 C-0.67 0.67 -0.34 0.34 0 0 Z " fill="#A8A9A9" transform="translate(646,294)"/>
<path d="M0 0 C0.66 0 1.32 0 2 0 C2 1.98 2 3.96 2 6 C1.01 6 0.02 6 -1 6 C-1.042721 4.33388095 -1.04063832 2.66617115 -1 1 C-0.67 0.67 -0.34 0.34 0 0 Z " fill="#B1B2B2" transform="translate(777,265)"/>
<path d="M0 0 C1.65 0 3.3 0 5 0 C5.33 0.66 5.66 1.32 6 2 C5.34 2.66 4.68 3.32 4 4 C1.525 3.01 1.525 3.01 -1 2 C-0.67 1.34 -0.34 0.68 0 0 Z " fill="#5A5B5B" transform="translate(778,227)"/>
<path d="M0 0 C0.99 0.33 1.98 0.66 3 1 C2.67 3.31 2.34 5.62 2 8 C-0.1519437 4.77208445 -0.20086443 3.71599191 0 0 Z " fill="#D2D4D4" transform="translate(426,644)"/>
<path d="M0 0 C1.65 0 3.3 0 5 0 C5 0.99 5 1.98 5 3 C3.35 3 1.7 3 0 3 C0 2.01 0 1.02 0 0 Z " fill="#D1D2D2" transform="translate(371,583)"/>
<path d="M0 0 C1.65 0 3.3 0 5 0 C5.33 0.99 5.66 1.98 6 3 C4.02 3 2.04 3 0 3 C0 2.01 0 1.02 0 0 Z " fill="#C8C9C9" transform="translate(334,525)"/>
<path d="M0 0 C0.66 0.33 1.32 0.66 2 1 C2.625 3.5625 2.625 3.5625 3 6 C2.01 6 1.02 6 0 6 C-0.38218767 4.34385343 -0.71395102 2.67542976 -1 1 C-0.67 0.67 -0.34 0.34 0 0 Z " fill="#656666" transform="translate(544,411)"/>
<path d="M0 0 C1.65 0 3.3 0 5 0 C5 0.99 5 1.98 5 3 C3.35 3 1.7 3 0 3 C0 2.01 0 1.02 0 0 Z " fill="#5E5F5F" transform="translate(589,372)"/>
<path d="M0 0 C1.65 0 3.3 0 5 0 C5.33 0.99 5.66 1.98 6 3 C4.02 3 2.04 3 0 3 C0 2.01 0 1.02 0 0 Z " fill="#AAABAB" transform="translate(647,314)"/>
<path d="M0 0 C1.65 0 3.3 0 5 0 C5.33 0.99 5.66 1.98 6 3 C4.02 3 2.04 3 0 3 C0 2.01 0 1.02 0 0 Z " fill="#787979" transform="translate(683,292)"/>
<path d="M0 0 C1.98 0.66 3.96 1.32 6 2 C6 2.66 6 3.32 6 4 C4.02 4.33 2.04 4.66 0 5 C0 3.35 0 1.7 0 0 Z " fill="#0E0E0E" transform="translate(751,280)"/>
<path d="M0 0 C1.65 0 3.3 0 5 0 C5.33 0.99 5.66 1.98 6 3 C4.02 3 2.04 3 0 3 C0 2.01 0 1.02 0 0 Z " fill="#474848" transform="translate(763,263)"/>
</svg>
